<?xml version="1.0" standalone="no"?><!DOCTYPE svg PUBLIC "-//W3C//DTD SVG 1.1//EN" "http://www.w3.org/Graphics/SVG/1.1/DTD/svg11.dtd"><svg t="1740214885485" class="icon" viewBox="0 0 1024 1024" version="1.1" xmlns="http://www.w3.org/2000/svg" p-id="2394" xmlns:xlink="http://www.w3.org/1999/xlink" width="200" height="200"><path d="M512 512m-496.8 0a496.8 496.8 0 1 0 993.6 0 496.8 496.8 0 1 0-993.6 0Z" fill="#F7F0E6" p-id="2395"></path><path d="M837.6 512c0 62.4-8 115.2-36 165.6-29.6 52-63.2 97.6-114.4 128-48.8 28.8-104 36.8-164.8 36.8-60.8 0-118.4-3.2-168-32.8-50.4-30.4-88.8-76.8-118.4-128.8-28-50.4-66.4-106.4-66.4-168.8 0-62.4 40.8-117.6 69.6-168 29.6-52 62.4-104.8 112.8-135.2 48.8-28.8 109.6-33.6 170.4-33.6 60.8 0 114.4 16 164 45.6 50.4 30.4 92 70.4 121.6 122.4 28 50.4 29.6 106.4 29.6 168.8z" fill="#EBC387" p-id="2396"></path><path d="M803.2 512c0 160.8-120 274.4-291.2 291.2-160 16-325.6-154.4-291.2-308.8C256 337.6 371.2 208.8 529.6 237.6 717.6 272 803.2 351.2 803.2 512z" fill="#E1AA5A" p-id="2397"></path><path d="M558.4 329.6l19.2 31.2c12 19.2 39.2 21.6 54.4 4.8l27.2-29.6c14.4-16 11.2-40.8-6.4-52l-17.6-11.2c-8.8-5.6-19.2-7.2-29.6-4L576 278.4c-20 8-28.8 32.8-17.6 51.2zM236 381.6L216 407.2c-12 16-5.6 38.4 12.8 45.6l32.8 12.8c17.6 7.2 36.8-4 40.8-21.6l4-17.6c1.6-8.8-0.8-18.4-6.4-24.8l-17.6-20.8c-12-16-35.2-15.2-46.4 0.8zM577.6 648l-19.2 25.6c-12 16-5.6 38.4 12.8 45.6l32.8 12.8c17.6 7.2 36.8-4 40.8-21.6l4-17.6c1.6-8.8-0.8-18.4-6.4-24.8l-17.6-20.8c-12-15.2-35.2-15.2-47.2 0.8z" fill="#FAEBC8" p-id="2398"></path><path d="M298.4 574.4c-22.4 30.4-4 82.4 41.6 116 45.6 33.6 100.8 36.8 123.2 6.4L298.4 574.4z" fill="#ADDF6E" p-id="2399"></path><path d="M273.6 448l-27.2-32.8c-10.4-12-10.4-28-4-40-2.4 1.6-4.8 4-6.4 6.4L216 407.2c-12 16-5.6 38.4 12.8 45.6l32.8 12.8c11.2 4.8 23.2 1.6 32-6.4-7.2-0.8-14.4-4.8-20-11.2zM600 316l27.2-37.6c1.6-2.4 4-4.8 5.6-6.4-8-4.8-17.6-5.6-27.2-2.4L576 279.2c-20.8 7.2-30.4 32-18.4 50.4l19.2 31.2c5.6 8.8 13.6 13.6 22.4 15.2-11.2-16.8-12-40.8 0.8-60zM619.2 707.2l-28.8-29.6c-8.8-9.6-11.2-22.4-8-33.6-1.6 1.6-3.2 3.2-4 4.8l-19.2 25.6c-12 16-5.6 38.4 12.8 45.6l32.8 12.8c15.2 5.6 32-1.6 38.4-15.2-9.6-0.8-17.6-4-24-10.4z" fill="#F5DCB4" p-id="2400"></path><path d="M352 653.6c-26.4-24-44.8-51.2-55.2-76-19.2 30.4-0.8 80 44 112.8 40 29.6 87.2 35.2 113.6 16-30.4-3.2-68-21.6-102.4-52.8z" fill="#87CD6E" p-id="2401"></path><path d="M436.8 287.2c-37.6 2.4-65.6 49.6-62.4 106.4 3.2 56.8 36.8 100.8 74.4 98.4l-12-204.8z" fill="#ADDF6E" p-id="2402"></path><path d="M410.4 378.4c1.6-35.2 10.4-67.2 23.2-91.2-36 4.8-62.4 51.2-59.2 105.6 3.2 49.6 28.8 89.6 60 97.6-16.8-24-26.4-65.6-24-112z" fill="#87CD6E" p-id="2403"></path><path d="M548 497.6c0.8 37.6 48 67.2 104.8 65.6 56.8-1.6 101.6-33.6 100.8-71.2l-205.6 5.6z" fill="#ADDF6E" p-id="2404"></path><path d="M639.2 526.4c-35.2-2.4-67.2-12-90.4-25.6 4 36 49.6 63.2 104 61.6 49.6-1.6 90.4-26.4 99.2-57.6-25.6 16.8-66.4 25.6-112.8 21.6z" fill="#87CD6E" p-id="2405"></path><path d="M874.4 149.6C777.6 53.6 648.8 0 512 0S246.4 53.6 149.6 149.6C53.6 246.4 0 375.2 0 512s53.6 265.6 149.6 362.4C246.4 970.4 375.2 1024 512 1024s265.6-53.6 362.4-149.6C970.4 777.6 1024 648.8 1024 512s-53.6-265.6-149.6-362.4z m-21.6 703.2C761.6 944 640.8 993.6 512 993.6s-249.6-50.4-340.8-140.8S30.4 640.8 30.4 512 80 262.4 171.2 171.2 383.2 30.4 512 30.4s249.6 50.4 340.8 140.8 140.8 212 140.8 340.8-49.6 249.6-140.8 340.8z" fill="" p-id="2406"></path><path d="M646.4 225.6h1.6c7.2 0 14.4-5.6 15.2-13.6 0.8-8 2.4-15.2 4.8-22.4 2.4-8-1.6-16-8.8-19.2-8-2.4-16 1.6-19.2 8.8-3.2 8.8-5.6 18.4-6.4 28.8-0.8 9.6 4.8 16.8 12.8 17.6zM487.2 809.6c-8 0-15.2 6.4-15.2 14.4 0 10.4-0.8 20.8-1.6 30.4-0.8 8 5.6 15.2 13.6 16h1.6c8 0 14.4-5.6 15.2-13.6 0.8-10.4 1.6-21.6 1.6-32.8 0-7.2-7.2-14.4-15.2-14.4zM297.6 268.8c2.4 0 4.8-0.8 6.4-1.6 16-8 32.8-15.2 52-22.4 18.4-6.4 30.4-24 32-43.2 0-5.6 0.8-12 1.6-16.8 0-4 0.8-8.8 1.6-13.6 0.8-8-4.8-16-12.8-16.8-8-0.8-16 4.8-16.8 12.8-0.8 4.8-0.8 9.6-1.6 14.4-0.8 5.6-0.8 11.2-1.6 17.6-0.8 8-5.6 14.4-12 16.8-20 8-38.4 15.2-55.2 24-7.2 4-10.4 12.8-6.4 20 2.4 5.6 8 8.8 12.8 8.8zM216 324c3.2 0 7.2-1.6 10.4-4 8-7.2 16-13.6 24.8-20 6.4-4.8 8-14.4 3.2-20.8s-14.4-8-20.8-3.2c-9.6 7.2-18.4 14.4-27.2 22.4-6.4 5.6-6.4 15.2-0.8 20.8 2.4 3.2 6.4 4.8 10.4 4.8zM692.8 784c8-0.8 14.4-8 13.6-16-1.6-19.2-3.2-39.2-6.4-58.4-0.8-8 2.4-16 9.6-20 65.6-39.2 119.2-90.4 158.4-152 4.8-7.2 2.4-16-4.8-20.8-7.2-4.8-16-2.4-20.8 4.8-36.8 57.6-87.2 105.6-148.8 142.4-17.6 10.4-26.4 29.6-24 49.6 2.4 19.2 4.8 38.4 6.4 56.8 0.8 8 7.2 13.6 15.2 13.6h1.6z" fill="" p-id="2407"></path><path d="M644.8 647.2c52.8-27.2 97.6-60.8 132-100 38.4-44 65.6-94.4 80.8-151.2 2.4-8-2.4-16-10.4-18.4-8-2.4-16 2.4-18.4 10.4-12.8 48-35.2 91.2-65.6 128.8 2.4-7.2 4-14.4 4-21.6 0-8-6.4-15.2-15.2-15.2h-8.8c48.8-65.6 68.8-146.4 57.6-240-0.8-8-8-14.4-16.8-13.6-8 0.8-14.4 8-13.6 16.8 10.4 94.4-12 174.4-66.4 236h-54.4c65.6-57.6 92.8-139.2 81.6-242.4-3.2-28.8 2.4-50.4 8-62.4 3.2-8 0-16.8-8-20-8-3.2-16.8 0-20 8-6.4 16-14.4 41.6-10.4 77.6 6.4 60-0.8 112.8-23.2 155.2-16.8 32.8-43.2 60.8-77.6 84h-55.2c-8 0-15.2 6.4-15.2 15.2 0 6.4 0.8 12.8 3.2 19.2-14.4 5.6-28 10.4-39.2 13.6l-24.8 8c-23.2 8-37.6 31.2-33.6 55.2 3.2 18.4 8 40.8 11.2 56.8 1.6 7.2 3.2 15.2 4.8 23.2l-47.2-34.4v-0.8c-7.2-36.8-13.6-81.6 0-101.6 7.2-9.6 17.6-17.6 30.4-24.8 2.4 0 5.6 0.8 8.8 0.8h3.2c7.2 0 12-4.8 13.6-11.2 6.4-2.4 12.8-4.8 20-7.2 51.2-16.8 128.8-43.2 164-119.2l23.2-25.6c9.6-10.4 14.4-24.8 12.8-40-1.6-14.4-9.6-27.2-22.4-35.2L640 260c-12.8-8-28-9.6-42.4-5.6l-5.6 1.6v-4c-7.2-64.8 12-104 30.4-125.6 5.6-6.4 4.8-16-1.6-20.8-6.4-5.6-16-4.8-20.8 1.6-17.6 21.6-46.4 68.8-36.8 148.8 0.8 3.2 0.8 7.2 0.8 10.4-12 5.6-20.8 15.2-25.6 28-4.8 14.4-3.2 29.6 4.8 43.2l4 6.4c-19.2 26.4-53.6 39.2-91.2 51.2l-1.6-40c32-11.2 49.6-19.2 60-32 14.4-16.8 12.8-39.2 10.4-62.4-5.6-47.2 0-88.8 15.2-124 3.2-7.2 0-16.8-8-20-7.2-3.2-16.8 0-20 8-17.6 40.8-24 87.2-17.6 140 2.4 23.2 1.6 33.6-3.2 39.2-5.6 6.4-18.4 12.8-38.4 20l-1.6-35.2c0-1.6-0.8-3.2-0.8-4.8 4.8-3.2 7.2-8 7.2-14.4v-0.8c-3.2-39.2-1.6-76.8 6.4-110.4 1.6-8-3.2-16-11.2-17.6-8-1.6-16 3.2-17.6 11.2-8 33.6-9.6 70.4-6.4 108.8-8 2.4-15.2 4.8-19.2 6.4-44 14.4-111.2 36.8-165.6 89.6-8 3.2-14.4 8-20 15.2l-19.2 25.6c-4.8 6.4-8 13.6-8.8 21.6-21.6 38.4-32.8 80-35.2 127.2-1.6 44.8 5.6 88.8 12.8 122.4 1.6 7.2 8 12 14.4 12h3.2c8-1.6 13.6-9.6 12-17.6-13.6-67.2-21.6-137.6 7.2-204.8 4 4 8.8 6.4 14.4 8.8l20.8 8c-28.8 69.6-12.8 144 3.2 216 7.2 32.8 15.2 67.2 17.6 100 0.8 8 7.2 13.6 15.2 13.6h1.6c8-0.8 14.4-8 13.6-16-3.2-35.2-10.4-70.4-18.4-104-15.2-68.8-30.4-139.2-3.2-201.6 7.2 0 14.4-1.6 20.8-5.6 12-6.4 20-17.6 22.4-30.4l4-17.6c0.8-3.2 0.8-7.2 0.8-10.4 11.2-9.6 24-18.4 38.4-25.6v3.2c0.8 13.6 3.2 26.4 6.4 38.4-18.4 11.2-32 24.8-44 40.8-16.8 23.2-24.8 50.4-24.8 84.8h-0.8c-4 0.8-7.2 2.4-9.6 5.6-25.6 34.4-11.2 87.2 31.2 126.4 12.8 59.2 23.2 117.6 12 177.6-1.6 8 4 16 12 17.6h3.2c7.2 0 13.6-4.8 14.4-12 10.4-54.4 4-107.2-5.6-158.4 13.6 7.2 28 12 41.6 14.4 8 47.2 13.6 107.2-3.2 171.2-2.4 8 2.4 16 10.4 18.4 1.6 0 2.4 0.8 4 0.8 6.4 0 12.8-4.8 14.4-11.2 8.8-33.6 18.4-88 4-177.6 14.4-1.6 26.4-6.4 36.8-13.6 2.4 12.8 4 26.4 5.6 40 0.8 8 7.2 13.6 15.2 13.6h1.6c8-0.8 14.4-8 13.6-16.8-4.8-42.4-12.8-80.8-20.8-114.4-4-16.8-8-37.6-11.2-55.2-1.6-9.6 4-18.4 13.6-21.6l24.8-8c12-4 28-8.8 44.8-16 4.8 5.6 11.2 11.2 18.4 16 5.6 4 12 7.2 18.4 9.6-14.4 6.4-28.8 12.8-44 18.4-19.2 7.2-31.2 28-26.4 48l0.8 5.6c12 55.2 34.4 156.8 20 266.4-0.8 8 4.8 16 12.8 16.8h2.4c7.2 0 13.6-5.6 15.2-12.8 8.8-63.2 4.8-124-1.6-175.2 0 0 0.8 0 0.8 0.8l32.8 12.8c2.4 0.8 4.8 1.6 6.4 2.4 4 36.8 5.6 72 4 105.6 0 8 6.4 15.2 14.4 15.2h0.8c8 0 14.4-6.4 15.2-14.4 1.6-35.2 0-72-4-110.4 0.8 0 0.8-0.8 1.6-0.8 12-6.4 20-17.6 22.4-30.4l4-17.6c2.4-13.6-0.8-27.2-9.6-37.6l-11.2-12.8z m-33.6-363.2c5.6-1.6 11.2-0.8 16.8 2.4l17.6 11.2c4.8 3.2 8 8 8.8 13.6s-0.8 11.2-4.8 15.2l-22.4 24.8c-1.6 0.8-2.4 2.4-3.2 4l-1.6 1.6c-4 4.8-9.6 6.4-16 6.4-6.4-0.8-11.2-4-14.4-8.8l-19.2-31.2c-3.2-4.8-4-11.2-1.6-16.8 2.4-5.6 6.4-9.6 12-12l28-10.4zM461.6 425.6c38.4-12.8 78.4-26.4 104.8-55.2 8 11.2 19.2 18.4 32.8 20.8-34.4 40.8-85.6 57.6-125.6 71.2-4 1.6-8 2.4-12 4l-1.6-40 1.6-0.8z m-167.2-55.2c-3.2-4-6.4-6.4-10.4-9.6 32-25.6 66.4-41.6 98.4-52.8-9.6 13.6-16 30.4-20 49.6-20 9.6-36.8 20-52 31.2l-16-18.4z m96 24c-1.6-39.2 12.8-73.6 34.4-85.6l8 168c-8-3.2-15.2-9.6-21.6-18.4-12.8-16.8-20-39.2-20.8-64z m-98.4 28.8l-4 17.6c-0.8 4.8-3.2 8-7.2 10.4-4 2.4-8.8 2.4-12.8 0.8l-32.8-12.8c-4.8-1.6-8-5.6-8.8-9.6-1.6-4.8-0.8-9.6 2.4-12.8l19.2-25.6c2.4-4 7.2-5.6 12-6.4 4.8 0 8.8 1.6 12 5.6l17.6 20.8c1.6 3.2 3.2 8 2.4 12z m55.2 68.8c8-11.2 18.4-20.8 30.4-29.6 7.2 12.8 16 24 26.4 32-8.8 6.4-16 13.6-21.6 21.6-16 22.4-16 56.8-10.4 93.6l-44-32c-2.4-36.8 3.2-63.2 19.2-85.6z m64.8 210.4c-20-0.8-42.4-9.6-62.4-24-31.2-23.2-48.8-56.8-44.8-80.8L440 697.6c-7.2 4-16.8 5.6-28 4.8z m152.8-192.8h168c-4 8-10.4 15.2-20 20.8-16.8 11.2-40 17.6-64.8 17.6-24.8 0-47.2-6.4-64-17.6-8.8-5.6-15.2-12.8-19.2-20.8z m0.8 129.6L552 657.6c-2.4-9.6-4-18.4-5.6-26.4l-0.8-5.6c-1.6-5.6 1.6-11.2 7.2-13.6 27.2-9.6 53.6-21.6 76.8-35.2 6.4 0.8 12.8 0.8 20 1.6 24.8 0 48-5.6 68-15.2-28 23.2-60 44-96 61.6-6.4-3.2-12.8-4.8-20-4-14.4 0.8-27.2 7.2-36 18.4z m11.2 66.4c-4.8-1.6-8-5.6-8.8-9.6-1.6-4.8-0.8-9.6 2.4-12.8l19.2-25.6c2.4-4 7.2-5.6 12-6.4 4.8 0 8.8 1.6 12 5.6l17.6 20.8c3.2 3.2 4 8 3.2 12.8l-4 17.6c-0.8 4.8-3.2 8-7.2 10.4s-8.8 2.4-12.8 0.8l-33.6-13.6zM762.4 724c-5.6-5.6-15.2-5.6-21.6 0-5.6 5.6-5.6 15.2 0 21.6l16.8 16.8c3.2 3.2 6.4 4 10.4 4s8-1.6 10.4-4c5.6-5.6 5.6-15.2 0-21.6l-16-16.8zM820.8 668h-16.8c-8 0-15.2 6.4-15.2 15.2 0 8 6.4 15.2 15.2 15.2h16.8c8 0 15.2-6.4 15.2-15.2-0.8-8-7.2-15.2-15.2-15.2zM184.8 357.6c0-8-6.4-15.2-15.2-15.2-8 0-15.2 6.4-15.2 15.2s7.2 15.2 15.2 15.2 15.2-6.4 15.2-15.2zM855.2 616.8c-8.8 0-15.2 6.4-15.2 15.2 0 8 7.2 15.2 15.2 15.2s15.2-6.4 15.2-15.2c-0.8-8-7.2-15.2-15.2-15.2zM700.8 822.4c-8.8 0-15.2 6.4-15.2 15.2 0 8 7.2 15.2 15.2 15.2s15.2-6.4 15.2-15.2c-0.8-8-7.2-15.2-15.2-15.2z" fill="" p-id="2408"></path></svg>